<svg width="30" height="30" viewBox="0 0 30 30" fill="none" xmlns="http://www.w3.org/2000/svg">
<path fill-rule="evenodd" clip-rule="evenodd" d="M4.96209 4.96209C5.3282 4.59597 5.9218 4.59597 6.28791 4.96209L15 13.6742L23.7121 4.96209C24.0782 4.59597 24.6718 4.59597 25.0379 4.96209C25.404 5.3282 25.404 5.9218 25.0379 6.28791L16.3258 15L25.0379 23.7121C25.404 24.0782 25.404 24.6718 25.0379 25.0379C24.6718 25.404 24.0782 25.404 23.7121 25.0379L15 16.3258L6.28791 25.0379C5.9218 25.404 5.3282 25.404 4.96209 25.0379C4.59597 24.6718 4.59597 24.0782 4.96209 23.7121L13.6742 15L4.96209 6.28791C4.59597 5.9218 4.59597 5.3282 4.96209 4.96209Z" fill="#2F5AA8"/>
</svg>
